<svg width="180" height="180" viewBox="0 0 180 180" fill="none" xmlns="http://www.w3.org/2000/svg">
<g clip-path="url(#clip0_505_68)">
<path d="M0.197439 0.197489H179.803V179.803H0.197439V0.197489Z" fill="url(#paint0_linear_505_68)"/>
<path d="M9.18272 9.18273H170.817L170.817 170.817H9.18272L9.18272 9.18273Z" stroke="#BF894C"/>
<path d="M73.1334 22.7164C73.2868 23.8187 73.3928 26.387 72.5893 27.8415C73.7612 27.015 74.6819 24.7002 73.1334 22.7164Z" fill="#D69772"/>
<path d="M90.8362 35.9382C89.9988 36.243 88.8412 36.6643 87.154 36.2723C87.6319 36.7872 88.2 36.9902 88.7852 37.1994C90.4548 37.7962 92.2632 38.4427 92.5112 46.5223C92.5112 46.5223 93.0134 36.2723 92.1763 35.7764C91.8355 35.5744 91.4114 35.7288 90.8362 35.9382Z" fill="#D69772"/>
<path d="M77.2188 42.9729C77.2434 43.5129 77.2638 43.9627 77.2724 44.2054C77.2626 43.571 77.2882 41.2885 78.1138 40.0746C78.5249 39.4702 78.9849 39.3184 79.4929 39.1507C80.0846 38.9554 80.7414 38.7386 81.462 37.7602C80.5369 38.3707 79.6289 38.6658 78.8835 38.908C77.812 39.2562 77.0765 39.4952 77.1094 40.4052C77.1385 41.2113 77.1829 42.1859 77.2187 42.9706L77.2188 42.9729Z" fill="#D69772"/>
<path d="M78.9509 52.308C79.0478 54.6775 79.0195 56.0598 78.6161 58.7553C80.346 59.2298 85.0112 60.4001 89.8326 59.963C85.8147 59.6985 81.2388 58.607 79.4531 58.0944C79.7074 55.2591 79.4553 54.2767 79.0617 52.7427C79.0258 52.6029 78.9888 52.4587 78.9509 52.308Z" fill="#D69772"/>
<path d="M99.5424 40.4052C105.222 40.4052 104.641 42.2037 103.458 45.8668C103.037 47.1705 102.54 48.7104 102.221 50.4895C102.221 48.5829 102.457 47.0374 102.649 45.772C103.109 42.7584 103.326 41.3339 99.5424 40.4052Z" fill="#D69772"/>
<path d="M95.1897 39.744C95.2402 41.7089 95.3835 43.4216 95.5202 45.0546C95.8297 48.7546 96.1051 52.0458 95.1897 56.9368C97.6071 50.1157 96.7314 46.3587 95.2952 40.1967C95.2603 40.0472 95.2252 39.8963 95.1897 39.744Z" fill="#D69772"/>
<path d="M110.592 56.9368C120.804 61.731 122.769 49.5478 115.279 48.175C116.484 48.8363 117.623 50.4895 117.455 51.8124C114.275 48.175 111.429 47.5138 108.167 51.8124C113.27 49.3323 118.125 56.2755 110.592 56.9368Z" fill="#D69772"/>
<path fill-rule="evenodd" clip-rule="evenodd" d="M110.257 19.4104C111.546 20.6695 111.779 22.0568 112.026 23.5222C112.216 24.648 112.413 25.8198 113.103 27.015C113.855 28.3188 115.236 28.2788 116.597 28.2394C118.925 28.172 121.191 28.1063 120.134 34.7848C119.553 38.4574 116.455 40.4595 113.714 42.2315C112.683 42.8973 111.704 43.5306 110.926 44.2078C114.107 42.8853 117.288 41.7281 122.143 41.5628C121.306 42.2241 120.636 42.8853 120.134 43.5466C122.143 43.3813 125.826 43.2159 127.165 43.5466C126.83 43.8111 126.7 44.0227 126.579 44.2343L126.571 44.2492C126.393 44.5617 126.214 44.8769 125.324 45.3651C126.328 46.0263 126.83 46.1917 128.337 46.5223C125.706 47.9657 125.442 50.5292 125.198 53.0393L125.19 53.1275C125.018 54.8994 124.849 56.6377 123.817 57.9291C128.002 58.5352 136.641 62.8224 137.712 75.122C136.373 74.1301 134.699 73.1382 132.69 72.9728C135.089 75.5628 139.453 83.2225 137.712 93.1415C134.715 81.1071 128.382 78.137 122.729 75.4861L122.726 75.4849C118.906 73.6936 115.395 72.0475 113.437 67.848C112.117 77.4963 117.467 80.2084 123.775 83.4054L123.85 83.4434L123.851 83.4437C124.555 83.8009 125.273 84.1646 125.993 84.545C133.192 88.3473 139.636 97.9663 124.821 114.632C128.989 106.901 131.626 99.3912 125.993 91.531C125.993 95.2973 125.324 101.738 119.632 104.878C122.841 102.637 123.851 88.0425 117.623 83.7184C110.809 78.9874 110.488 75.5936 110.215 72.6441L110.212 72.6131C110.057 70.9367 109.915 69.4032 108.583 67.848C109.141 67.9031 110.391 68.1126 110.926 68.5093C110.718 65.8389 109.282 63.991 107.913 62.2372L107.905 62.2274C107.603 61.8397 107.303 61.4566 107.022 61.0701C94.6025 64.9061 87.4616 65.1649 74.4091 62.2372C71.0759 66.7966 64.9909 67.5146 59.7533 68.1327L59.3638 68.1787C54.683 68.7333 51.468 70.6838 48.8113 72.2955C46.7171 73.566 44.9699 74.626 43.125 74.626C45.1418 73.5869 46.6534 71.8221 48.2372 69.973C49.6771 68.292 51.1766 66.5413 53.1696 65.203C51.446 65.9664 47.9799 66.0292 46.1384 63.5494C49.5775 64.3163 52.4006 63.7076 55.923 62.9481C57.7161 62.5616 59.6903 62.1359 62.0192 61.8327C69.5857 60.8477 76.7249 59.9184 76.7745 51.8124C76.8117 45.7524 69.6142 43.0106 64.5536 42.0587C67.5708 41.3816 68.3691 41.4811 68.8352 41.5392C68.938 41.552 69.0247 41.5628 69.1155 41.5628C69.0139 41.4959 68.8531 41.4015 68.6472 41.2806C66.8172 40.2064 61.434 37.0463 62.5865 32.6357C63.0759 30.7626 64.6075 30.1532 66.2194 29.5117C67.5882 28.967 69.015 28.3992 69.9107 27.015C70.6785 25.8284 70.7098 24.5654 70.7399 23.3492C70.7758 21.9 70.8101 20.5175 72.087 19.4104C73.674 18.0346 75.3755 18.5153 77.2007 19.0309C78.6529 19.4411 80.1834 19.8734 81.7969 19.4104C83.2759 18.986 83.966 18.048 84.663 17.1007C85.6407 15.7718 86.6318 14.4247 89.8326 14.4509C91.7541 14.4667 92.8852 15.4868 94.0859 16.5696C95.0083 17.4015 95.9718 18.2703 97.3661 18.7492C99.4737 19.473 101.539 18.9997 103.497 18.5509C105.963 17.9858 108.259 17.4596 110.257 19.4104ZM106.239 53.3002C108.248 56.7168 113.471 62.9547 118.292 60.5741C120.716 59.3773 124.288 54.6228 121.808 49.9939C118.915 44.5936 107.076 42.8853 102.221 55.6147C102.514 54.1268 103.435 49.9939 104.774 45.3651C106.291 40.123 104.922 39.9015 101.912 39.4145C101.6 39.3639 101.27 39.3105 100.924 39.2483C98.7671 38.8612 98.562 37.0572 98.3844 35.4955C98.2586 34.3899 98.1467 33.4057 97.3661 33.1317C96.6433 32.8779 95.939 32.9893 95.2296 33.1016C94.0904 33.2818 92.9379 33.4641 91.6741 32.1398C102.087 30.4205 99.8075 24.4801 97.3661 21.7248C101.217 22.5514 102.531 26.2214 100.924 30.3213C99.3164 34.4211 101.928 36.3278 103.435 36.7686C105.845 37.9589 109.461 34.2889 110.926 30.3213C110.926 32.0295 110.324 35.9751 107.913 38.0911C109.587 38.0911 111.303 38.0911 114.651 34.7848C114.182 36.4843 112.826 37.7507 111.446 39.0392C109.873 40.5082 108.27 42.0062 107.913 44.2078C108.549 42.3563 112.419 39.3586 114.275 38.0911C113.675 38.8626 112.333 40.7362 111.763 42.0587C113.27 41.2322 116.158 38.9177 117.665 34.2889C118.614 31.3715 117.02 30.8182 115.083 30.1456C113.947 29.7511 112.692 29.3155 111.763 28.3375C110.383 26.884 110.052 25.2308 109.762 23.7894C109.525 22.6078 109.317 21.5685 108.583 20.8983C106.141 21.0636 100.388 21.1297 96.9057 20.0717C94.7804 19.4259 93.8326 18.3861 93.0341 17.5102C92.1973 16.5921 91.5246 15.8542 89.8326 15.9388C87.1252 16.0741 83.8514 21.1187 83.1362 23.7083C83.2748 23.2063 83.3573 22.7505 83.4352 22.3202C83.5787 21.5277 83.7066 20.8213 84.1406 20.0714C83.1362 21.2286 82.6339 21.3547 82.1735 21.3942C80.5003 21.5379 78.8903 21.1196 77.4672 20.7499C75.6154 20.2689 74.08 19.87 73.1334 20.8983C72.322 21.7796 72.3463 22.8551 72.3723 24.0118C72.4001 25.2418 72.4298 26.5636 71.4593 27.8415C70.6296 28.934 69.2214 29.481 67.8347 30.0196C66.0736 30.7037 64.3472 31.3744 63.8839 33.1317C63.2215 35.6445 68.0722 39.2483 70.5803 40.7362C69.1434 39.7994 66.3365 36.967 66.6043 33.1317C69.5759 36.7686 70.957 37.7605 73.1334 37.2646C70.5552 34.355 71.6964 30.8723 72.5893 29.4947C72.7001 36.8795 76.031 36.717 84.8521 32.6357C81.6786 37.7393 78.9471 38.1875 77.2161 38.4715C75.7511 38.7119 75.0027 38.8347 75.3097 41.5628C75.4645 42.9385 75.626 44.0197 75.7828 44.8691C78.3519 48.5352 79.0039 51.5744 77.6535 59.6323C87.8677 61.8508 94.2538 61.5373 105.492 58.0944C105.158 56.7623 105.283 55.2329 106.239 53.3002Z" fill="#D69772"/>
<path d="M72.087 46.8529C62.8795 44.4089 58.0245 50.9858 65.0558 60.5741C61.2217 59.7612 59.018 59.6832 55.0112 60.0782C56.1553 58.8613 56.9022 58.3082 58.8616 58.0944C56.8422 53.8489 56.952 50.1791 58.4019 47.6791C58.4019 46.5223 56.6853 45.1993 55.5134 44.5381C57.6897 44.5381 58.8616 45.3647 59.7533 46.01C60.2166 45.594 57.012 42.6265 54.5089 41.7277C58.8616 41.5628 63.5491 43.5462 63.7165 44.2627C66.165 43.9667 69.0931 44.7263 72.087 46.8529Z" fill="#D69772"/>
<path d="M60.3412 70.8318C63.1874 70.3884 66.4661 69.8777 70.5803 68.1787C68.7624 72.1282 66.3521 72.7635 63.5639 73.4985C61.2171 74.117 58.6026 74.8062 55.8482 77.6017C53.5888 79.8948 52.247 82.5365 51.0025 84.9866C48.9274 89.0719 47.1228 92.6248 41.7857 93.1415C43.9985 91.8466 44.9676 88.3726 46.0088 84.6397C47.0945 80.7475 48.2587 76.5738 50.9933 74.2954C53.9567 71.8263 56.8176 71.3806 60.3412 70.8318Z" fill="#D69772"/>
<path d="M62.4963 81.7819C65.7326 80.7429 68.6877 79.7943 69.9107 76.7751C71.382 83.5205 66.6522 88.5721 62.5127 92.9933C60.0579 95.6151 57.8107 98.0152 57.1875 100.415C55.5134 106.863 57.3549 111.491 60.0335 117.443C54.5089 112.483 53.337 108.846 52.5 101.738C50.1562 103.556 47.3103 104.383 44.4643 104.052C47.006 102.977 48.1695 99.6165 49.4761 95.8432C50.5792 92.6576 51.7843 89.1775 54.0067 86.5288C56.3283 83.7619 59.5304 82.734 62.4963 81.7819Z" fill="#D69772"/>
<path d="M77.8591 70.0165C77.0918 70.1775 76.4152 70.3194 75.9375 70.1621C76.0491 70.3825 76.4062 70.8564 76.942 70.9887C77.2768 72.9725 79.3301 74.1297 81.6295 73.9644C82.2991 73.9644 83.471 74.1297 84.4754 77.1054C83.7098 68.7892 80.3184 69.5006 77.8591 70.0165Z" fill="#D69772"/>
<path d="M103.982 70.0165C104.75 70.1775 105.426 70.3194 105.904 70.1621C105.792 70.3825 105.435 70.8564 104.9 70.9887C104.565 72.9725 102.511 74.1297 100.212 73.9644C99.5424 73.9644 98.3705 74.1297 97.3661 77.1054C98.1317 68.7892 101.523 69.5006 103.982 70.0165Z" fill="#D69772"/>
<path d="M83.3036 88.8428C83.5376 89.2665 84.4095 89.7899 85.0962 90.2021C85.392 90.3797 85.6534 90.5366 85.8147 90.6561C86.0628 89.5126 86.8422 89.8541 87.8701 90.3045C88.1393 90.4225 88.4255 90.5479 88.7237 90.6561C89.9793 91.1116 93.5237 90.9339 94.2897 90.6561C94.6165 90.5375 94.9203 90.3982 95.1983 90.2708C96.1425 89.8379 96.7894 89.5414 97.0312 90.6561C97.1925 90.5366 97.454 90.3797 97.7498 90.2021C98.4365 89.7899 99.3084 89.2665 99.5424 88.8428C98.9484 90.3418 97.5248 92.0551 96.8194 92.7631C96.9384 91.19 94.6552 92.1047 94.0173 92.6163C93.2261 93.2507 93.3061 94.9123 94.3537 95.2973C94.1166 95.5835 93.813 95.8374 93.5094 96.0912C92.8905 96.6086 92.2717 97.1259 92.2175 97.9171C92.1028 99.5916 92.988 100.364 94.2451 101.117L94.2455 101.117C95.6692 101.971 97.7848 103.18 100.714 101.076C99.6429 102.266 97.9241 103.887 96.8638 103.556C94.6323 102.86 93.8015 102.978 92.8685 103.11C92.4717 103.166 92.0563 103.225 91.5067 103.225C90.9571 103.225 90.5417 103.166 90.1448 103.11C89.2118 102.978 88.3811 102.86 86.1495 103.556C85.0893 103.887 83.3705 102.266 82.2991 101.076C85.2285 103.18 87.3442 101.971 88.7679 101.117L88.7683 101.117C90.0254 100.364 90.9105 99.5916 90.7958 97.9171C90.746 97.19 90.0736 96.6023 89.4441 96.052C89.1509 95.7957 88.867 95.5476 88.6596 95.2973C89.7073 94.9123 89.7873 93.2507 88.9961 92.6163C88.3581 92.1047 86.075 91.19 86.194 92.7631C85.4885 92.0551 83.8976 90.3418 83.3036 88.8428Z" fill="#D69772"/>
<path d="M75.9375 78.0973C73.6607 75.1496 74.4308 72.13 75.1004 70.9887C74.5255 73.5214 75.6027 76.2788 76.942 77.6017C76.2082 79.2952 77.2477 81.8338 77.8591 82.8915C77.2186 82.5216 75.9375 81.045 75.9375 78.0973Z" fill="#D69772"/>
<path d="M79.4531 91.4823C80.3775 92.1981 83.0538 93.7966 86.3642 94.4636C82.6232 94.8391 79.8789 92.5645 79.4531 91.4823Z" fill="#D69772"/>
<path d="M78.2812 93.9676C79.6205 94.6289 82.6717 95.6151 85.9821 96.2821C82.2411 96.6576 79.4531 95.0632 78.2812 93.9676Z" fill="#D69772"/>
<path d="M78.4487 96.778C79.7879 97.4393 82.8013 98.2658 85.9821 98.5965C82.2266 99.217 79.6056 98.1142 78.4487 96.778Z" fill="#D69772"/>
<path d="M103.273 91.4823C102.348 92.1981 99.672 93.7966 96.3616 94.4636C100.103 94.8391 102.847 92.5645 103.273 91.4823Z" fill="#D69772"/>
<path d="M104.445 93.9676C103.105 94.6289 100.054 95.6151 96.7437 96.2821C100.485 96.6576 103.273 95.0632 104.445 93.9676Z" fill="#D69772"/>
<path d="M104.277 96.778C102.938 97.4393 99.9245 98.2658 96.7437 98.5965C100.499 99.217 103.12 98.1142 104.277 96.778Z" fill="#D69772"/>
<path d="M83.6384 77.1054C83.6384 77.725 83.8956 78.0543 84.1518 78.3823C84.4425 78.7545 84.7318 79.125 84.6428 79.9158C84.5534 80.7105 84.4162 80.7977 84.2823 80.8829C84.1655 80.9571 84.0512 81.0298 83.9732 81.5689C83.9325 81.8501 83.9017 82.18 83.8688 82.5327C83.7663 83.6318 83.6431 84.9516 83.1362 85.7022C83.9244 84.6641 84.0941 83.3207 84.2115 82.3911C84.2437 82.1362 84.272 81.9121 84.308 81.7342C84.3746 81.4057 84.5204 81.3122 84.6721 81.215C84.902 81.0677 85.1451 80.9119 85.1451 79.9158C85.1451 79.0157 84.6984 78.6057 84.2915 78.2321C83.951 77.9196 83.6384 77.6325 83.6384 77.1054Z" fill="#D69772"/>
<path d="M98.5172 81.9625C98.0707 80.7423 97.7009 79.7315 97.7009 79.2545C97.898 79.94 98.2442 80.6272 98.614 81.3613C99.4435 83.0078 100.392 84.8906 100.045 87.5203C99.9462 85.8684 99.1538 83.7025 98.5172 81.9625Z" fill="#D69772"/>
<path d="M105.393 85.1754C107.265 81.5796 109.372 77.5293 108.583 72.6131C110.04 79.5773 108.633 81.5337 105.273 86.2065C104.87 86.7663 104.439 87.3652 103.982 88.0163C104.393 87.0977 104.884 86.1539 105.393 85.1764L105.393 85.1754Z" fill="#D69772"/>
<path d="M115.727 99.7278C115.769 98.6475 116.3 97.5759 116.868 96.4293C117.762 94.6228 118.749 92.6302 118.062 90.1241C117.623 88.5259 115.657 87.2705 113.523 85.9078C113.806 86.558 114.313 87.1001 114.826 87.6485C115.777 88.6657 116.749 89.7045 116.349 91.4952C115.896 90.4535 114.996 89.3334 113.879 89.5659C115.935 91.8198 115.763 93.0664 115.528 94.7817C115.46 95.2743 115.387 95.8057 115.36 96.4106C115.301 97.7269 115.249 98.8784 115.727 99.7278Z" fill="#D69772"/>
<path d="M70.6783 90.6681C72.0337 89.3084 73.3005 88.0376 73.8754 86.53C74.1507 87.9499 73.5282 89.5536 72.8166 91.3869C72.4895 92.2295 72.1322 92.9469 71.8009 93.6121C70.6473 95.9282 69.809 97.6114 71.6613 101.741C69.9608 101.557 69.213 99.5603 69.0638 97.8798C67.6413 100.227 68.5293 102.142 69.3989 104.016C69.8677 105.027 70.3312 106.026 70.4243 107.075C68.0348 104.168 65.8335 101.491 65.9712 99.0311C66.1871 95.1733 68.5427 92.8104 70.6783 90.6681Z" fill="#D69772"/>
<path d="M70.945 48.0561C66.5625 51.812 70.945 55.6143 74.885 54.7081C70.413 60.9044 62.712 59.9125 64.2187 52.6386C64.721 54.7081 65.8928 54.7081 67.084 54.4973C64.8884 51.812 66.7299 47.8444 70.945 48.0561Z" fill="#D69772"/>
<path d="M57.5223 57.2674C56.5848 55.5481 56.0156 52.6386 56.3504 50.8201C55.346 49.9935 53.0022 49.6629 51.1607 50.1588C52.8348 50.8201 53.0022 51.4814 53.0022 51.812C51.3109 51.4086 48.3898 51.3419 46.3058 51.9773C48.3147 52.1426 55.1786 54.457 57.5223 57.2674Z" fill="#D69772"/>
<path d="M83.1017 142.084C83.7948 142.091 84.3623 141.542 84.3693 140.858C84.3764 140.174 83.8202 139.614 83.1272 139.607C82.4341 139.6 81.8666 140.149 81.8596 140.833C81.8525 141.517 82.4087 142.077 83.1017 142.084Z" fill="#D69772"/>
<path d="M72.4202 134.988C72.4132 135.672 71.8457 136.221 71.1526 136.214C70.4595 136.207 69.9034 135.647 69.9104 134.963C69.9175 134.279 70.485 133.73 71.1781 133.737C71.8711 133.744 72.4273 134.304 72.4202 134.988Z" fill="#D69772"/>
<path fill-rule="evenodd" clip-rule="evenodd" d="M72.972 140.727C71.167 139.251 69.4133 137.816 66.3649 137.952C66.2441 137.647 66.1292 137.324 66.0255 136.991C64.9038 133.391 65.0918 128.638 73.3209 132.758C73.6641 132.929 74.0155 133.104 74.3747 133.282C75.0312 133.609 75.7138 133.949 76.42 134.302L76.9476 134.565C77.2299 134.706 77.5158 134.849 77.8051 134.994C78.0411 135.112 78.2793 135.231 78.5197 135.351L78.8055 135.494C82.7987 137.494 87.376 139.802 92.1651 142.239C107.393 149.988 124.762 159.046 132.303 163.663C131.985 163.675 131.665 163.682 131.342 163.686C126.144 163.737 120.281 162.691 114.482 161.111L114.249 154.592L113.526 154.208L113.776 160.916C113.505 160.839 113.233 160.762 112.962 160.684L112.717 153.778L111.115 152.925L111.375 160.213C111.092 160.126 110.81 160.039 110.528 159.951L110.26 152.471L107.554 151.031L107.841 159.075C99.3846 156.212 91.7046 152.635 87.2602 150.241L85.1046 150.926C108.867 162.436 122.778 166.176 133.367 164.327C133.54 164.437 133.704 164.543 133.862 164.646C124.428 166.719 111.898 164.734 84.4271 151.141C85.4028 150.021 86.2127 148.145 85.0458 146.502C84.1876 145.294 82.2601 144.212 78.5428 143.649C76.0905 143.278 74.5125 141.988 72.972 140.727ZM79.065 142.758C82.5591 143.334 84.3942 144.386 85.2257 145.557C85.685 143.434 86.3997 142.198 88.1781 140.775L78.8285 136.138L79.065 142.758ZM77.8837 142.534C78.1491 142.602 78.4281 142.659 78.7227 142.704L78.5374 135.993L77.8118 135.633L77.8837 142.534ZM76.4346 142C76.6193 142.09 76.8107 142.175 77.01 142.252C77.0267 140.278 77.0409 136.707 76.9957 135.229L76.4212 134.944L76.4346 142ZM73.6448 140.023C73.8717 140.215 74.0978 140.407 74.3274 140.595L74.3706 133.927L73.1638 133.328C68.3086 130.862 64.9263 131.329 66.6074 136.998C70.2149 137.113 71.9529 138.588 73.6448 140.023ZM87.6027 149.682L91.8852 142.695L88.793 141.094C86.947 142.718 86.1781 143.897 85.6207 146.214C86.395 147.616 86.4603 148.676 85.446 150.386L87.6027 149.682Z" fill="#D69772"/>
<path d="M94.4347 142.058C94.7588 142.224 95.0837 142.39 95.4093 142.556C97.8466 141.184 100.387 139.62 102.868 138.092L102.869 138.091C106.174 136.055 109.375 134.084 112.09 132.718C115.044 131.232 117.756 133.04 117.756 133.04C117.756 133.04 117.475 136.27 114.456 137.619C117.964 130.591 103.597 138.734 96.1722 142.946C97.0632 143.401 97.9585 143.859 98.8558 144.32C99.6909 144.028 100.526 143.737 101.357 143.449L101.397 143.435L101.398 143.434L101.399 143.434C106.27 141.741 110.987 140.102 114.669 138.457C118.674 136.667 119.047 132.383 119.047 132.383C119.047 132.383 115.448 129.984 111.531 131.956C107.929 133.768 103.683 136.383 99.2987 139.083L99.2982 139.083C97.6873 140.075 96.0578 141.079 94.4347 142.058Z" fill="#D69772"/>
<path fill-rule="evenodd" clip-rule="evenodd" d="M83.5198 150.364C84.2347 149.543 84.6093 148.545 84.3189 147.681C83.325 148.159 82.3582 148.592 81.4263 148.969C81.0327 149.128 80.6669 149.279 80.3193 149.423L80.3167 149.424C78.4916 150.178 77.17 150.724 74.9736 151.124C73.5524 151.382 72.3383 151.197 71.1654 151.018C69.7431 150.8 68.3816 150.592 66.785 151.197C61.8287 153.074 55.0209 157.871 55.1813 158.203C55.2359 158.316 56.5897 157.713 58.3775 156.916C61.8524 155.367 66.9668 153.088 67.3671 153.917C67.7186 154.645 63.8558 156.567 60.6089 158.182L60.6084 158.183L60.6081 158.183L60.6076 158.183L60.6073 158.183L60.6068 158.183C58.2536 159.354 56.2244 160.364 56.3582 160.641C56.4944 160.923 58.6383 159.964 61.0925 158.866C64.3771 157.397 68.2174 155.678 68.544 156.355C68.8706 157.031 65.1133 158.92 61.8993 160.535L61.8989 160.535L61.8984 160.535C59.4969 161.742 57.3988 162.797 57.5351 163.079C57.6689 163.356 59.7352 162.422 62.1312 161.338C65.4366 159.843 69.3694 158.065 69.7209 158.793C70.1212 159.622 65.1232 162.143 61.7275 163.855L61.7266 163.856L61.7257 163.856C59.9795 164.737 58.6574 165.404 58.7119 165.517C58.8724 165.849 66.9099 163.6 71.4924 160.949C72.9686 160.095 73.6591 158.913 74.3804 157.678C74.9752 156.659 75.5909 155.605 76.6854 154.67C78.3769 153.224 79.6347 152.546 81.3717 151.609C81.7032 151.43 82.0521 151.242 82.4249 151.038C82.7327 150.868 83.0487 150.7 83.3722 150.533L83.5198 150.364ZM72.2418 158.793C70.5007 153.676 70.7639 153.678 72.4941 153.69C72.7397 153.691 73.0152 153.693 73.3184 153.68C73.4953 153.673 73.6777 153.669 73.8648 153.664C74.9241 153.64 76.1345 153.612 77.3371 152.995C74.7639 154.613 74.2737 155.536 73.6926 156.632C73.3661 157.247 73.011 157.916 72.2418 158.793Z" fill="#D69772"/>
<path d="M53.8393 118.93C53.8393 121.122 52.0404 122.898 49.8214 122.898C47.6024 122.898 45.8036 121.122 45.8036 118.93C45.8036 116.739 47.6024 114.963 49.8214 114.963C52.0404 114.963 53.8393 116.739 53.8393 118.93Z" fill="#F0DCC0"/>
<path d="M134.196 122.898C136.415 122.898 138.214 121.122 138.214 118.93C138.214 116.739 136.415 114.963 134.196 114.963C131.977 114.963 130.179 116.739 130.179 118.93C130.179 121.122 131.977 122.898 134.196 122.898Z" fill="#F0DCC0"/>
<path fill-rule="evenodd" clip-rule="evenodd" d="M110.843 110.334C115.6 110.334 119.464 114.187 119.464 118.93C119.464 123.698 115.6 127.527 110.843 127.527C106.086 127.527 102.246 123.698 102.246 118.93C102.246 114.187 106.086 110.334 110.843 110.334ZM110.843 123.65C104.939 123.65 104.958 114.187 110.843 114.187C116.758 114.187 116.776 123.65 110.843 123.65Z" fill="#F0DCC0"/>
<path d="M65.8928 127.358H77.0497V123.481H69.9982V110.502H65.8928V127.358Z" fill="#F0DCC0"/>
<path d="M94.5766 116.98H88.4363V114.355H95.8983V110.502H84.3309V127.358H95.8983V123.481H88.4363V120.857H94.5766V116.98Z" fill="#F0DCC0"/>
</g>
<defs>
<linearGradient id="paint0_linear_505_68" x1="269.605" y1="90.0001" x2="-58.1902" y2="191.477" gradientUnits="userSpaceOnUse">
<stop stop-color="#051D17"/>
<stop offset="1" stop-color="#02362A"/>
</linearGradient>
<clipPath id="clip0_505_68">
<rect width="180" height="180" fill="white"/>
</clipPath>
</defs>
</svg>
