<svg width="36" height="36" viewBox="0 0 36 36" fill="none" xmlns="http://www.w3.org/2000/svg">
<path d="M24.0069 30V19.5546C24.0069 19.0068 23.9333 18.548 23.7038 18.2413C23.4836 17.9469 23.097 17.7751 22.4569 17.7751C20.385 17.7751 19.867 19.3456 19.8002 19.5841V30L14.588 30V12.9952H19.8002V14.3415C20.1489 14.115 20.6124 13.8522 21.1774 13.6202C22.0037 13.2808 23.0461 13.0069 24.2622 13.0069C25.2322 13.0069 26.8283 13.353 27.9515 14.8888C28.6895 15.898 29.2199 17.4196 29.2199 19.6923V30L24.0069 30Z" fill="#0177AF"/>
<path d="M9.41411 10.9392C8.73418 10.9392 8.11762 10.6623 7.67113 10.2134C7.22589 9.76582 6.95034 9.14784 6.95034 8.46378C6.95034 7.78371 7.22634 7.16782 7.67219 6.72196C8.11819 6.27596 8.73427 6 9.41412 6L9.41611 6.001C10.0963 6.00752 10.7115 6.2859 11.1561 6.73052C11.602 7.17641 11.8779 7.78944 11.8779 8.46378C11.8779 9.14794 11.6024 9.766 11.1572 10.2136C10.7108 10.6624 10.0943 10.9392 9.41411 10.9392Z" fill="#0177AF"/>
<path d="M6.8 29.9999V12.9953H12.028V29.9999H6.8Z" fill="#0177AF"/>
</svg>
