<svg width="254" height="254" viewBox="0 0 254 254" fill="none" xmlns="http://www.w3.org/2000/svg">
<g clip-path="url(#clip0_505_68)">
<path d="M0 127L127 3.05176e-05L254 127L127 254L0 127Z" fill="url(#paint0_linear_505_68)"/>
<path d="M12.7071 127L127 12.7071L241.293 127L127 241.293L12.7071 127Z" stroke="#BF894C"/>
<path d="M112.157 67.6321C112.292 68.6048 112.386 70.8709 111.679 72.1543C112.71 71.425 113.52 69.3825 112.157 67.6321Z" fill="#D69772"/>
<path d="M127.736 79.2984C126.999 79.5673 125.98 79.9391 124.496 79.5932C124.916 80.0475 125.416 80.2267 125.931 80.4112C127.4 80.9378 128.992 81.5083 129.21 88.6373C129.21 88.6373 129.652 79.5932 128.915 79.1556C128.615 78.9774 128.242 79.1136 127.736 79.2984Z" fill="#D69772"/>
<path d="M115.753 85.5055C115.774 85.9819 115.792 86.3788 115.8 86.593C115.791 86.0332 115.814 84.0192 116.54 82.9482C116.902 82.4149 117.307 82.2809 117.754 82.1329C118.274 81.9606 118.852 81.7693 119.487 80.906C118.673 81.4447 117.873 81.7051 117.218 81.9188C116.275 82.2261 115.627 82.437 115.656 83.2399C115.682 83.9512 115.721 84.8111 115.752 85.5035L115.753 85.5055Z" fill="#D69772"/>
<path d="M117.277 93.7423C117.362 95.8331 117.337 97.0528 116.982 99.4311C118.504 99.8498 122.61 100.882 126.853 100.497C123.317 100.263 119.29 99.3003 117.719 98.848C117.942 96.3462 117.721 95.4794 117.374 94.1259C117.343 94.0026 117.31 93.8753 117.277 93.7423Z" fill="#D69772"/>
<path d="M135.397 83.2399C140.395 83.2399 139.884 84.8267 138.843 88.0589C138.473 89.2093 138.035 90.568 137.754 92.1378C137.754 90.4555 137.962 89.0918 138.131 87.9753C138.536 85.3163 138.727 84.0593 135.397 83.2399Z" fill="#D69772"/>
<path d="M131.567 82.6564C131.611 84.3902 131.738 85.9014 131.858 87.3423C132.13 90.6069 132.373 93.511 131.567 97.8266C133.694 91.8079 132.924 88.493 131.66 83.0559C131.629 82.924 131.598 82.7909 131.567 82.6564Z" fill="#D69772"/>
<path d="M145.121 97.8266C154.107 102.057 155.837 91.3069 149.246 90.0956C150.306 90.6791 151.308 92.1377 151.161 93.305C148.362 90.0956 145.857 89.5121 142.987 93.305C147.478 91.1167 151.75 97.2431 145.121 97.8266Z" fill="#D69772"/>
<path fill-rule="evenodd" clip-rule="evenodd" d="M144.826 64.7151C145.96 65.826 146.166 67.0501 146.383 68.3431C146.55 69.3364 146.723 70.3704 147.33 71.425C147.992 72.5754 149.208 72.5401 150.405 72.5053C152.454 72.4458 154.448 72.3879 153.518 78.2807C153.007 81.5212 150.281 83.2877 147.868 84.8513C146.961 85.4388 146.099 85.9976 145.415 86.5951C148.214 85.4282 151.013 84.4071 155.286 84.2613C154.549 84.8447 153.96 85.4282 153.518 86.0117C155.286 85.8658 158.527 85.7199 159.705 86.0117C159.411 86.2451 159.296 86.4318 159.19 86.6185L159.182 86.6316C159.026 86.9073 158.868 87.1855 158.085 87.6162C158.969 88.1997 159.411 88.3456 160.737 88.6373C158.421 89.9109 158.189 92.1728 157.974 94.3876L157.967 94.4654C157.816 96.0288 157.667 97.5627 156.759 98.7021C160.442 99.237 168.044 103.02 168.987 113.872C167.808 112.997 166.335 112.122 164.567 111.976C166.679 114.261 170.519 121.02 168.987 129.772C166.349 119.153 160.776 116.533 155.801 114.194L155.799 114.193C152.437 112.612 149.348 111.16 147.625 107.454C146.463 115.967 151.171 118.36 156.722 121.181L156.788 121.215L156.788 121.215C157.409 121.53 158.04 121.851 158.674 122.187C165.009 125.542 170.68 134.029 157.643 148.735C161.31 141.913 163.631 135.286 158.674 128.351C158.674 131.674 158.085 137.357 153.076 140.128C155.9 138.151 156.788 125.273 151.308 121.457C145.312 117.283 145.029 114.288 144.789 111.686L144.787 111.659C144.65 110.179 144.525 108.826 143.353 107.454C143.844 107.503 144.944 107.688 145.415 108.038C145.232 105.681 143.968 104.051 142.763 102.503L142.757 102.495C142.49 102.153 142.227 101.815 141.979 101.474C131.05 104.858 124.766 105.087 113.28 102.503C110.347 106.526 104.992 107.16 100.383 107.705L100.04 107.746C95.9211 108.235 93.0919 109.956 90.754 111.378C88.9111 112.499 87.3735 113.435 85.75 113.435C87.5248 112.518 88.855 110.961 90.2488 109.329C91.5158 107.846 92.8354 106.301 94.5893 105.12C93.0725 105.794 90.0223 105.849 88.4018 103.661C91.4282 104.338 93.9126 103.801 97.0123 103.131C98.5902 102.79 100.327 102.414 102.377 102.147C109.035 101.277 115.318 100.457 115.362 93.305C115.394 87.958 109.061 85.5388 104.607 84.6989C107.262 84.1014 107.965 84.1892 108.375 84.2404C108.465 84.2517 108.542 84.2613 108.622 84.2613C108.532 84.2023 108.391 84.1189 108.21 84.0123C106.599 83.0644 101.862 80.2761 102.876 76.3844C103.307 74.7317 104.655 74.194 106.073 73.628C107.278 73.1473 108.533 72.6464 109.321 71.425C109.997 70.378 110.025 69.2635 110.051 68.1905C110.083 66.9118 110.113 65.6919 111.237 64.7151C112.633 63.5011 114.13 63.9252 115.737 64.3801C117.015 64.7421 118.361 65.1236 119.781 64.7151C121.083 64.3406 121.69 63.5129 122.303 62.677C123.164 61.5046 124.036 60.3159 126.853 60.339C128.544 60.353 129.539 61.2531 130.596 62.2085C131.407 62.9425 132.255 63.7091 133.482 64.1316C135.337 64.7703 137.154 64.3526 138.878 63.9566C141.047 63.4581 143.068 62.9938 144.826 64.7151ZM141.29 94.6179C143.058 97.6324 147.654 103.136 151.897 101.036C154.03 99.98 157.173 95.7848 154.991 91.7005C152.445 86.9355 142.027 85.4282 137.754 96.66C138.012 95.3472 138.823 91.7005 140.001 87.6162C141.336 82.9909 140.131 82.7954 137.483 82.3657C137.208 82.3211 136.917 82.274 136.613 82.2191C134.715 81.8775 134.535 80.2858 134.378 78.9078C134.268 77.9323 134.169 77.0639 133.482 76.822C132.846 76.5981 132.226 76.6964 131.602 76.7955C130.6 76.9545 129.585 77.1154 128.473 75.9468C137.637 74.4298 135.631 69.1883 133.482 66.7572C136.871 67.4865 138.027 70.7248 136.613 74.3423C135.198 77.9598 137.497 79.6421 138.823 80.0311C140.944 81.0814 144.126 77.8431 145.415 74.3423C145.415 75.8496 144.885 79.3309 142.763 81.198C144.237 81.198 145.747 81.198 148.693 78.2807C148.28 79.7803 147.087 80.8976 145.873 82.0346C144.489 83.3308 143.077 84.6525 142.763 86.5951C143.323 84.9614 146.729 82.3164 148.362 81.198C147.834 81.8788 146.653 83.5319 146.152 84.6989C147.478 83.9695 150.019 81.9274 151.345 77.8431C152.181 75.269 150.778 74.7807 149.073 74.1873C148.073 73.8392 146.969 73.4548 146.152 72.5919C144.937 71.3094 144.645 69.8507 144.391 68.5788C144.182 67.5363 143.999 66.6193 143.353 66.0279C141.204 66.1737 136.141 66.2321 133.077 65.2985C131.207 64.7288 130.373 63.8112 129.67 63.0384C128.934 62.2283 128.342 61.5772 126.853 61.6519C124.47 61.7713 121.589 66.2224 120.96 68.5073C121.082 68.0644 121.154 67.6622 121.223 67.2825C121.349 66.5832 121.462 65.96 121.844 65.2982C120.96 66.3193 120.518 66.4306 120.113 66.4655C118.64 66.5922 117.223 66.2232 115.971 65.897C114.342 65.4725 112.99 65.1206 112.157 66.0279C111.443 66.8055 111.465 67.7545 111.488 68.7751C111.512 69.8604 111.538 71.0267 110.684 72.1543C109.954 73.1182 108.715 73.6008 107.495 74.0761C105.945 74.6797 104.426 75.2715 104.018 76.822C103.435 79.0392 107.704 82.2191 109.911 83.5319C108.646 82.7053 106.176 80.2061 106.412 76.822C109.027 80.0311 110.242 80.9063 112.157 80.4687C109.889 77.9014 110.893 74.8285 111.679 73.613C111.776 80.129 114.707 79.9856 122.47 76.3844C119.677 80.8876 117.274 81.2831 115.75 81.5337C114.461 81.7458 113.802 81.8541 114.073 84.2613C114.209 85.4751 114.351 86.4291 114.489 87.1786C116.75 90.4134 117.323 93.095 116.135 100.205C125.124 102.162 130.743 101.886 140.633 98.848C140.339 97.6726 140.449 96.3231 141.29 94.6179Z" fill="#D69772"/>
<path d="M111.237 88.929C103.134 86.7726 98.8616 92.5757 105.049 101.036C101.675 100.319 99.7359 100.25 96.2098 100.598C97.2167 99.5246 97.8739 99.0366 99.5982 98.848C97.8212 95.102 97.9178 91.8639 99.1937 89.658C99.1937 88.6373 97.683 87.47 96.6518 86.8865C98.567 86.8865 99.5982 87.6159 100.383 88.1853C100.791 87.8183 97.9706 85.1999 95.7679 84.4068C99.5982 84.2613 103.723 86.0113 103.871 86.6435C106.025 86.3824 108.602 87.0526 111.237 88.929Z" fill="#D69772"/>
<path d="M100.9 110.087C103.405 109.696 106.29 109.245 109.911 107.746C108.311 111.231 106.19 111.791 103.736 112.44C101.671 112.986 99.3703 113.594 96.9464 116.06C94.9582 118.084 93.7774 120.415 92.6822 122.576C90.8562 126.181 89.2681 129.316 84.5714 129.772C86.5187 128.629 87.3715 125.564 88.2878 122.27C89.2432 118.836 90.2677 115.153 92.6741 113.143C95.2819 110.964 97.7995 110.571 100.9 110.087Z" fill="#D69772"/>
<path d="M102.797 119.749C105.645 118.832 108.245 117.995 109.321 115.331C110.616 121.283 106.454 125.74 102.811 129.641C100.651 131.955 98.6734 134.072 98.125 136.19C96.6518 141.879 98.2723 145.963 100.629 151.214C95.7679 146.838 94.7366 143.629 94 137.357C91.9375 138.961 89.433 139.691 86.9286 139.399C89.1653 138.45 90.1892 135.485 91.339 132.156C92.3097 129.345 93.3702 126.274 95.3259 123.937C97.3689 121.496 100.187 120.589 102.797 119.749Z" fill="#D69772"/>
<path d="M116.316 109.367C115.641 109.51 115.045 109.635 114.625 109.496C114.723 109.69 115.038 110.109 115.509 110.225C115.804 111.976 117.611 112.997 119.634 112.851C120.223 112.851 121.254 112.997 122.138 115.622C121.465 108.285 118.48 108.912 116.316 109.367Z" fill="#D69772"/>
<path d="M139.305 109.367C139.98 109.51 140.575 109.635 140.996 109.496C140.897 109.69 140.583 110.109 140.112 110.225C139.817 111.976 138.01 112.997 135.987 112.851C135.397 112.851 134.366 112.997 133.482 115.622C134.156 108.285 137.14 108.912 139.305 109.367Z" fill="#D69772"/>
<path d="M121.107 125.979C121.313 126.353 122.08 126.815 122.685 127.178C122.945 127.335 123.175 127.473 123.317 127.579C123.535 126.57 124.221 126.871 125.126 127.269C125.363 127.373 125.614 127.483 125.877 127.579C126.982 127.981 130.101 127.824 130.775 127.579C131.063 127.474 131.33 127.351 131.574 127.239C132.405 126.857 132.975 126.595 133.188 127.579C133.329 127.473 133.56 127.335 133.82 127.178C134.424 126.815 135.191 126.353 135.397 125.979C134.875 127.302 133.622 128.813 133.001 129.438C133.106 128.05 131.097 128.857 130.535 129.308C129.839 129.868 129.909 131.334 130.831 131.674C130.623 131.927 130.355 132.151 130.088 132.375C129.544 132.831 128.999 133.288 128.951 133.986C128.851 135.463 129.629 136.144 130.736 136.809L130.736 136.809C131.989 137.563 133.851 138.629 136.429 136.773C135.486 137.823 133.973 139.253 133.04 138.961C131.076 138.347 130.345 138.451 129.524 138.568C129.175 138.617 128.81 138.669 128.326 138.669C127.842 138.669 127.477 138.617 127.127 138.568C126.306 138.451 125.575 138.347 123.612 138.961C122.679 139.253 121.166 137.823 120.223 136.773C122.801 138.629 124.663 137.563 125.916 136.809L125.916 136.809C127.022 136.144 127.801 135.463 127.7 133.986C127.657 133.344 127.065 132.826 126.511 132.34C126.253 132.114 126.003 131.895 125.821 131.674C126.742 131.334 126.813 129.868 126.117 129.308C125.555 128.857 123.546 128.05 123.651 129.438C123.03 128.813 121.63 127.302 121.107 125.979Z" fill="#D69772"/>
<path d="M114.625 116.498C112.621 113.897 113.299 111.232 113.888 110.225C113.382 112.46 114.33 114.893 115.509 116.06C114.863 117.555 115.778 119.795 116.316 120.728C115.752 120.401 114.625 119.098 114.625 116.498Z" fill="#D69772"/>
<path d="M117.719 128.308C118.532 128.94 120.887 130.35 123.801 130.938C120.508 131.27 118.093 129.263 117.719 128.308Z" fill="#D69772"/>
<path d="M116.688 130.501C117.866 131.084 120.551 131.954 123.464 132.543C120.172 132.874 117.719 131.468 116.688 130.501Z" fill="#D69772"/>
<path d="M116.835 132.981C118.013 133.564 120.665 134.293 123.464 134.585C120.159 135.133 117.853 134.16 116.835 132.981Z" fill="#D69772"/>
<path d="M138.68 128.308C137.867 128.94 135.511 130.35 132.598 130.938C135.89 131.27 138.305 129.263 138.68 128.308Z" fill="#D69772"/>
<path d="M139.711 130.501C138.533 131.084 135.848 131.954 132.934 132.543C136.227 132.874 138.68 131.468 139.711 130.501Z" fill="#D69772"/>
<path d="M139.564 132.981C138.385 133.564 135.734 134.293 132.934 134.585C136.239 135.133 138.546 134.16 139.564 132.981Z" fill="#D69772"/>
<path d="M121.402 115.622C121.402 116.169 121.628 116.46 121.854 116.749C122.109 117.077 122.364 117.404 122.286 118.102C122.207 118.803 122.086 118.88 121.968 118.955C121.866 119.021 121.765 119.085 121.696 119.561C121.661 119.809 121.634 120.1 121.605 120.411C121.514 121.381 121.406 122.546 120.96 123.208C121.653 122.292 121.803 121.107 121.906 120.286C121.934 120.061 121.959 119.864 121.991 119.707C122.05 119.417 122.178 119.334 122.311 119.249C122.514 119.119 122.728 118.981 122.728 118.102C122.728 117.308 122.335 116.946 121.977 116.617C121.677 116.341 121.402 116.088 121.402 115.622Z" fill="#D69772"/>
<path d="M134.495 119.908C134.102 118.831 133.777 117.94 133.777 117.519C133.95 118.124 134.255 118.73 134.58 119.378C135.31 120.83 136.145 122.492 135.839 124.812C135.753 123.354 135.055 121.443 134.495 119.908Z" fill="#D69772"/>
<path d="M140.546 122.743C142.193 119.57 144.048 115.996 143.353 111.659C144.635 117.804 143.397 119.53 140.44 123.653C140.086 124.147 139.707 124.675 139.305 125.25C139.666 124.439 140.098 123.606 140.546 122.744L140.546 122.743Z" fill="#D69772"/>
<path d="M149.64 135.583C149.677 134.63 150.144 133.685 150.644 132.673C151.431 131.079 152.299 129.321 151.694 127.109C151.309 125.699 149.578 124.592 147.7 123.389C147.949 123.963 148.396 124.441 148.847 124.925C149.684 125.823 150.539 126.739 150.187 128.319C149.788 127.4 148.996 126.412 148.014 126.617C149.823 128.606 149.672 129.706 149.464 131.219C149.405 131.654 149.341 132.123 149.317 132.656C149.265 133.818 149.22 134.834 149.64 135.583Z" fill="#D69772"/>
<path d="M109.997 127.589C111.19 126.39 112.304 125.268 112.81 123.938C113.053 125.191 112.505 126.606 111.879 128.224C111.591 128.967 111.276 129.6 110.985 130.187C109.97 132.231 109.232 133.716 110.862 137.36C109.366 137.197 108.707 135.436 108.576 133.953C107.324 136.024 108.106 137.713 108.871 139.367C109.284 140.259 109.691 141.14 109.773 142.066C107.671 139.502 105.733 137.139 105.855 134.969C106.045 131.565 108.118 129.48 109.997 127.589Z" fill="#D69772"/>
<path d="M110.232 89.9907C106.375 93.3047 110.232 96.6596 113.699 95.8601C109.763 101.327 102.987 100.452 104.313 94.034C104.754 95.8601 105.786 95.8601 106.834 95.6741C104.902 93.3047 106.522 89.8039 110.232 89.9907Z" fill="#D69772"/>
<path d="M98.4197 98.1183C97.5947 96.6013 97.0938 94.034 97.3884 92.4295C96.5045 91.7001 94.442 91.4084 92.8214 91.846C94.2947 92.4295 94.442 93.0129 94.442 93.3047C92.9536 92.9487 90.3831 92.8899 88.5491 93.4505C90.317 93.5964 96.3572 95.6386 98.4197 98.1183Z" fill="#D69772"/>
<path d="M120.93 172.956C121.539 172.963 122.039 172.478 122.045 171.875C122.051 171.271 121.562 170.777 120.952 170.771C120.342 170.765 119.843 171.249 119.836 171.852C119.83 172.456 120.32 172.95 120.93 172.956Z" fill="#D69772"/>
<path d="M111.53 166.695C111.524 167.299 111.024 167.783 110.414 167.777C109.804 167.771 109.315 167.277 109.321 166.673C109.327 166.07 109.827 165.585 110.437 165.591C111.047 165.598 111.536 166.092 111.53 166.695Z" fill="#D69772"/>
<path fill-rule="evenodd" clip-rule="evenodd" d="M112.015 171.759C110.427 170.457 108.884 169.191 106.201 169.311C106.095 169.042 105.994 168.757 105.902 168.463C104.915 165.286 105.081 161.092 112.322 164.728C112.624 164.878 112.934 165.033 113.25 165.19C113.827 165.478 114.428 165.779 115.05 166.09L115.514 166.322C115.762 166.447 116.014 166.573 116.269 166.7C116.476 166.804 116.686 166.91 116.897 167.016L117.149 167.142C120.663 168.906 124.691 170.943 128.905 173.093C142.306 179.931 157.591 187.923 164.227 191.997C163.947 192.007 163.665 192.014 163.381 192.017C158.807 192.062 153.647 191.139 148.544 189.745L148.339 183.993L147.703 183.654L147.923 189.572C147.684 189.505 147.445 189.437 147.207 189.368L146.991 183.274L145.581 182.522L145.81 188.952C145.561 188.876 145.313 188.799 145.064 188.721L144.829 182.121L142.448 180.851L142.7 187.948C135.258 185.422 128.5 182.266 124.589 180.153L122.692 180.758C143.603 190.914 155.845 194.214 165.163 192.583C165.315 192.68 165.46 192.774 165.598 192.864C157.296 194.693 146.27 192.942 122.096 180.948C122.955 179.959 123.667 178.304 122.64 176.855C121.885 175.789 120.189 174.834 116.918 174.338C114.76 174.01 113.371 172.871 112.015 171.759ZM117.377 173.551C120.452 174.059 122.067 174.988 122.799 176.021C123.203 174.148 123.832 173.057 125.397 171.801L117.169 167.71L117.377 173.551ZM116.338 173.353C116.571 173.414 116.817 173.464 117.076 173.504L116.913 167.582L116.274 167.265L116.338 173.353ZM115.063 172.882C115.225 172.962 115.393 173.036 115.569 173.105C115.584 171.363 115.596 168.212 115.556 166.908L115.051 166.656L115.063 172.882ZM112.607 171.138C112.807 171.307 113.006 171.477 113.208 171.642L113.246 165.759L112.184 165.231C107.912 163.055 104.935 163.467 106.415 168.469C109.589 168.571 111.119 169.871 112.607 171.138ZM124.89 179.66L128.659 173.496L125.938 172.082C124.313 173.516 123.637 174.556 123.146 176.6C123.828 177.837 123.885 178.772 122.993 180.281L124.89 179.66Z" fill="#D69772"/>
<path d="M130.903 172.934C131.188 173.08 131.474 173.226 131.76 173.373C133.905 172.163 136.14 170.782 138.324 169.434L138.325 169.433C141.233 167.637 144.05 165.898 146.439 164.692C149.038 163.381 151.426 164.977 151.426 164.977C151.426 164.977 151.178 167.826 148.521 169.017C151.608 162.816 138.966 170 132.432 173.717C133.216 174.119 134.003 174.523 134.793 174.929C135.528 174.671 136.263 174.415 136.994 174.161L137.029 174.148L137.03 174.148L137.031 174.148C141.317 172.654 145.468 171.208 148.709 169.756C152.233 168.177 152.561 164.397 152.561 164.397C152.561 164.397 149.395 162.28 145.947 164.02C142.778 165.618 139.041 167.926 135.183 170.308L135.182 170.309C133.765 171.184 132.331 172.07 130.903 172.934Z" fill="#D69772"/>
<path fill-rule="evenodd" clip-rule="evenodd" d="M121.297 180.262C121.927 179.538 122.256 178.657 122.001 177.895C121.126 178.317 120.275 178.699 119.455 179.031C119.109 179.172 118.787 179.305 118.481 179.432L118.479 179.433C116.873 180.098 115.71 180.58 113.777 180.933C112.526 181.161 111.458 180.997 110.426 180.839C109.174 180.647 107.976 180.464 106.571 180.997C102.209 182.653 96.2184 186.886 96.3596 187.179C96.4076 187.279 97.599 186.746 99.1722 186.043C102.23 184.677 106.731 182.666 107.083 183.397C107.392 184.04 103.993 185.735 101.136 187.161L101.135 187.161L101.135 187.161L101.135 187.161L101.134 187.161L101.134 187.162C99.0632 188.195 97.2775 189.086 97.3952 189.33C97.5151 189.579 99.4018 188.733 101.561 187.764C104.452 186.468 107.831 184.952 108.119 185.549C108.406 186.145 105.1 187.812 102.271 189.237L102.271 189.237L102.271 189.237C100.157 190.302 98.311 191.232 98.4309 191.481C98.5487 191.726 100.367 190.901 102.475 189.945C105.384 188.626 108.845 187.057 109.154 187.7C109.507 188.431 105.108 190.655 102.12 192.167L102.119 192.167L102.119 192.167C100.582 192.944 99.4185 193.533 99.4665 193.632C99.6077 193.926 106.681 191.941 110.713 189.602C112.012 188.848 112.62 187.805 113.255 186.716C113.778 185.817 114.32 184.887 115.283 184.062C116.772 182.786 117.879 182.188 119.407 181.361C119.699 181.203 120.006 181.037 120.334 180.857C120.605 180.707 120.883 180.559 121.168 180.412L121.297 180.262ZM111.373 187.7C109.841 183.185 110.072 183.187 111.595 183.197C111.811 183.198 112.053 183.2 112.32 183.189C112.476 183.182 112.636 183.178 112.801 183.175C113.733 183.153 114.798 183.128 115.857 182.584C113.592 184.011 113.161 184.826 112.649 185.793C112.362 186.335 112.05 186.926 111.373 187.7Z" fill="#D69772"/>
<path d="M95.1786 152.527C95.1786 154.46 93.5956 156.028 91.6429 156.028C89.6901 156.028 88.1071 154.46 88.1071 152.527C88.1071 150.593 89.6901 149.026 91.6429 149.026C93.5956 149.026 95.1786 150.593 95.1786 152.527Z" fill="#F0DCC0"/>
<path d="M165.893 156.028C167.846 156.028 169.429 154.46 169.429 152.527C169.429 150.593 167.846 149.026 165.893 149.026C163.94 149.026 162.357 150.593 162.357 152.527C162.357 154.46 163.94 156.028 165.893 156.028Z" fill="#F0DCC0"/>
<path fill-rule="evenodd" clip-rule="evenodd" d="M145.342 144.942C149.528 144.942 152.929 148.341 152.929 152.527C152.929 156.734 149.528 160.112 145.342 160.112C141.155 160.112 137.777 156.734 137.777 152.527C137.777 148.341 141.155 144.942 145.342 144.942ZM145.342 156.691C140.146 156.691 140.163 148.341 145.342 148.341C150.547 148.341 150.563 156.691 145.342 156.691Z" fill="#F0DCC0"/>
<path d="M105.786 159.963H115.604V156.542H109.398V145.09H105.786V159.963Z" fill="#F0DCC0"/>
<path d="M131.027 150.806H125.624V148.49H132.191V145.09H122.011V159.963H132.191V156.542H125.624V154.226H131.027V150.806Z" fill="#F0DCC0"/>
</g>
<defs>
<linearGradient id="paint0_linear_505_68" x1="254" y1="3.84994e-05" x2="93.9691" y2="303.542" gradientUnits="userSpaceOnUse">
<stop stop-color="#051D17"/>
<stop offset="1" stop-color="#02362A"/>
</linearGradient>
<clipPath id="clip0_505_68">
<rect width="254" height="254" fill="white"/>
</clipPath>
</defs>
</svg>
